<svg width="167" height="38" viewBox="0 0 167 38" fill="none" xmlns="http://www.w3.org/2000/svg">
<g clip-path="url(#clip0_148_780)">
<path d="M0 8C0 3.58172 3.58172 0 8 0H159C163.418 0 167 3.58172 167 8V30C167 34.4183 163.418 38 159 38H8C3.58172 38 0 34.4183 0 30V8Z" fill="#E1DFDB"/>
<mask id="mask0_148_780" style="mask-type:luminance" maskUnits="userSpaceOnUse" x="0" y="0" width="167" height="38">
<path d="M0 8C0 3.58172 3.58172 0 8 0H159C163.418 0 167 3.58172 167 8V30C167 34.4183 163.418 38 159 38H8C3.58172 38 0 34.4183 0 30V8Z" fill="white"/>
</mask>
<g mask="url(#mask0_148_780)">
<path d="M8 0V1H159V0V-1H8V0ZM167 8H166V30H167H168V8H167ZM159 38V37H8V38V39H159V38ZM0 30H1V8H0H-1V30H0ZM8 38V37C4.13401 37 1 33.866 1 30H0H-1C-1 34.9706 3.02944 39 8 39V38ZM167 30H166C166 33.866 162.866 37 159 37V38V39C163.971 39 168 34.9706 168 30H167ZM159 0V1C162.866 1 166 4.13401 166 8H167H168C168 3.02944 163.971 -1 159 -1V0ZM8 0V-1C3.02944 -1 -1 3.02944 -1 8H0H1C1 4.13401 4.13401 1 8 1V0Z" fill="#2C2C2C"/>
</g>
<path d="M6 18.5V18.8291V18.8822V19.1383V19.5V19.3291" stroke="#F5F5F5" stroke-width="1.6" stroke-linecap="round" stroke-linejoin="round"/>
<mask id="mask1_148_780" style="mask-type:luminance" maskUnits="userSpaceOnUse" x="14" y="1" width="34" height="36">
<path d="M48 1.5H14V36.5H48V1.5Z" fill="white"/>
</mask>
<g mask="url(#mask1_148_780)">
<path d="M40.6154 12.9024H27.2615V18.1845H40.6154V12.9024Z" fill="white"/>
<path d="M15.1795 30.1471C14.0034 30.1471 12.9788 29.5215 12.4288 28.5935C12.1577 29.0509 12 29.5805 12 30.1471C12 31.8632 13.4235 33.2543 15.1795 33.2543H18.359V30.1471H15.1795Z" fill="#3ECC5F"/>
<path d="M29.4841 13.7376L40.6155 13.0577V11.5042C40.6155 9.78807 39.1919 8.397 37.436 8.397H23.1283L22.7309 7.7243C22.5541 7.42523 22.1126 7.42523 21.936 7.7243L21.5385 8.397L21.1411 7.7243C20.9643 7.42523 20.5229 7.42523 20.3462 7.7243L19.9488 8.397L19.5514 7.7243C19.3746 7.42523 18.9331 7.42523 18.7565 7.7243L18.3591 8.397C18.3556 8.397 18.3522 8.39746 18.3487 8.39746L17.6902 7.75413C17.4405 7.51006 17.0141 7.62161 16.9226 7.95516L16.7051 8.74811L15.8795 8.53185C15.5382 8.44252 15.226 8.74764 15.3176 9.08119L15.5387 9.88797L14.7274 10.1003C14.3861 10.1898 14.2718 10.6067 14.5216 10.8507L15.1799 11.4942C15.1799 11.4975 15.1796 11.5007 15.1796 11.5042L14.4911 11.8926C14.1852 12.0652 14.1852 12.4967 14.4911 12.6693L15.1796 13.0577L14.4911 13.4461C14.1852 13.6187 14.1852 14.0503 14.4911 14.2229L15.1796 14.6113L14.4911 14.9997C14.1852 15.1723 14.1852 15.6039 14.4911 15.7765L15.1796 16.1649L14.4911 16.5533C14.1852 16.7259 14.1852 17.1575 14.4911 17.3301L15.1796 17.7185L14.4911 18.1069C14.1852 18.2795 14.1852 18.7111 14.4911 18.8837L15.1796 19.2721L14.4911 19.6604C14.1852 19.833 14.1852 20.2646 14.4911 20.4372L15.1796 20.8256L14.4911 21.214C14.1852 21.3866 14.1852 21.8182 14.4911 21.9908L15.1796 22.3792L14.4911 22.7676C14.1852 22.9402 14.1852 23.3718 14.4911 23.5444L15.1796 23.9328L14.4911 24.3212C14.1852 24.4938 14.1852 24.9254 14.4911 25.098L15.1796 25.4864L14.4911 25.8748C14.1852 26.0474 14.1852 26.4789 14.4911 26.6516L15.1796 27.0399L14.4911 27.4283C14.1852 27.6009 14.1852 28.0325 14.4911 28.2051L15.1796 28.5935L14.4911 28.9819C14.1852 29.1545 14.1852 29.5861 14.4911 29.7587L15.1796 30.1471C15.1796 31.8632 16.603 33.2543 18.3591 33.2543H37.436C39.1919 33.2543 40.6155 31.8632 40.6155 30.1471V17.7185L29.4841 17.0386C28.5922 16.9841 27.8975 16.2614 27.8975 15.3881C27.8975 14.5148 28.5922 13.7921 29.4841 13.7376Z" fill="#3ECC5F"/>
<path d="M34.2563 33.2543H39.0255V27.0399H34.2563V33.2543Z" fill="#3ECC5F"/>
<path d="M42.2051 29.3703C42.1703 29.3703 42.1371 29.3761 42.1035 29.3803C42.0975 29.3569 42.0918 29.3335 42.0851 29.3102C42.3722 29.193 42.5739 28.9165 42.5739 28.5935C42.5739 28.1644 42.2182 27.8167 41.7791 27.8167C41.5982 27.8167 41.4333 27.8783 41.2996 27.9777C41.282 27.9601 41.2643 27.9427 41.2464 27.9255C41.346 27.7956 41.4071 27.6362 41.4071 27.4614C41.4071 27.0323 41.0513 26.6846 40.6122 26.6846C40.2839 26.6846 40.0022 26.8793 39.8811 27.1571C39.8576 27.1506 39.8339 27.1451 39.8103 27.1392C39.8146 27.1064 39.8205 27.074 39.8205 27.0399C39.8205 26.6108 39.4647 26.2632 39.0256 26.2632C38.5866 26.2632 38.2308 26.6108 38.2308 27.0399C38.2308 27.074 38.2366 27.1064 38.2409 27.1392C38.2174 27.1451 38.1937 27.1506 38.1702 27.1571C38.0491 26.8793 37.7674 26.6846 37.4391 26.6846C37 26.6846 36.6442 27.0323 36.6442 27.4614C36.6442 27.6362 36.7053 27.7956 36.8049 27.9255C36.214 28.4897 35.8462 29.276 35.8462 30.1471C35.8462 31.8632 37.2696 33.2543 39.0256 33.2543C40.5103 33.2543 41.7536 32.2584 42.1035 30.9139C42.1371 30.9181 42.1703 30.9239 42.2051 30.9239C42.6442 30.9239 43 30.5762 43 30.1471C43 29.718 42.6442 29.3703 42.2051 29.3703Z" fill="#44D860"/>
<path d="M35.8462 23.9328H40.6154V20.8256H35.8462V23.9328Z" fill="#3ECC5F"/>
<path d="M42.2051 22.7676C42.4247 22.7676 42.6026 22.5937 42.6026 22.3792C42.6026 22.1646 42.4247 21.9908 42.2051 21.9908C42.1878 21.9908 42.1711 21.9938 42.1544 21.9958C42.1512 21.9841 42.1485 21.9725 42.1452 21.9608C42.2886 21.9022 42.3895 21.7638 42.3895 21.6024C42.3895 21.3879 42.2116 21.214 41.9921 21.214C41.9016 21.214 41.8191 21.2446 41.7524 21.2945C41.7436 21.2856 41.7347 21.2769 41.7257 21.2684C41.7756 21.2036 41.8061 21.1237 41.8061 21.0363C41.8061 20.8219 41.6282 20.6479 41.4087 20.6479C41.2444 20.6479 41.1036 20.7453 41.043 20.8842C40.9068 20.8471 40.7639 20.8256 40.6154 20.8256C39.7375 20.8256 39.0256 21.5213 39.0256 22.3792C39.0256 23.2371 39.7375 23.9328 40.6154 23.9328C40.7639 23.9328 40.9068 23.9113 41.043 23.8742C41.1036 24.0131 41.2444 24.1105 41.4087 24.1105C41.6282 24.1105 41.8061 23.9365 41.8061 23.7221C41.8061 23.6346 41.7756 23.5548 41.7257 23.49C41.7347 23.4815 41.7436 23.4728 41.7524 23.4639C41.8191 23.5138 41.9016 23.5444 41.9921 23.5444C42.2116 23.5444 42.3895 23.3705 42.3895 23.156C42.3895 22.9946 42.2886 22.8561 42.1452 22.7976C42.1485 22.7861 42.1512 22.7743 42.1544 22.7626C42.1711 22.7646 42.1878 22.7676 42.2051 22.7676Z" fill="#44D860"/>
<path d="M21.5385 13.4461C21.3189 13.4461 21.141 13.2723 21.141 13.0577C21.141 12.4152 20.6062 11.8925 19.9487 11.8925C19.2912 11.8925 18.7564 12.4152 18.7564 13.0577C18.7564 13.2723 18.5785 13.4461 18.359 13.4461C18.1394 13.4461 17.9615 13.2723 17.9615 13.0577C17.9615 11.9868 18.8529 11.1158 19.9487 11.1158C21.0445 11.1158 21.9359 11.9868 21.9359 13.0577C21.9359 13.2723 21.758 13.4461 21.5385 13.4461Z" fill="black"/>
<path d="M27.8975 33.2543H37.436C39.192 33.2543 40.6155 31.8632 40.6155 30.1471V19.2721H31.077C29.321 19.2721 27.8975 20.6631 27.8975 22.3792V33.2543Z" fill="#FFFF50"/>
<path d="M38.2339 24.0882H30.279C30.191 24.0882 30.12 24.0187 30.12 23.9328C30.12 23.8469 30.191 23.7774 30.279 23.7774H38.2339C38.3218 23.7774 38.3928 23.8469 38.3928 23.9328C38.3928 24.0187 38.3218 24.0882 38.2339 24.0882Z" fill="black"/>
<path d="M38.2339 27.1953H30.279C30.191 27.1953 30.12 27.1259 30.12 27.0399C30.12 26.954 30.191 26.8846 30.279 26.8846H38.2339C38.3218 26.8846 38.3928 26.954 38.3928 27.0399C38.3928 27.1259 38.3218 27.1953 38.2339 27.1953Z" fill="black"/>
<path d="M38.2339 30.3025H30.279C30.191 30.3025 30.12 30.233 30.12 30.1471C30.12 30.0612 30.191 29.9918 30.279 29.9918H38.2339C38.3218 29.9918 38.3928 30.0612 38.3928 30.1471C38.3928 30.233 38.3218 30.3025 38.2339 30.3025Z" fill="black"/>
<path d="M38.2339 22.5634H30.279C30.191 22.5634 30.12 22.4938 30.12 22.408C30.12 22.3221 30.191 22.2527 30.279 22.2527H38.2339C38.3218 22.2527 38.3928 22.3221 38.3928 22.408C38.3928 22.4938 38.3218 22.5634 38.2339 22.5634Z" fill="black"/>
<path d="M38.2339 25.6417H30.279C30.191 25.6417 30.12 25.5723 30.12 25.4864C30.12 25.4005 30.191 25.331 30.279 25.331H38.2339C38.3218 25.331 38.3928 25.4005 38.3928 25.4864C38.3928 25.5723 38.3218 25.6417 38.2339 25.6417Z" fill="black"/>
<path d="M38.2339 28.7489H30.279C30.191 28.7489 30.12 28.6794 30.12 28.5935C30.12 28.5076 30.191 28.4382 30.279 28.4382H38.2339C38.3218 28.4382 38.3928 28.5076 38.3928 28.5935C38.3928 28.6794 38.3218 28.7489 38.2339 28.7489Z" fill="black"/>
<path d="M40.6154 14.3956L40.61 14.3948C40.1187 14.4111 39.8863 14.8913 39.6812 15.315C39.4673 15.7576 39.3018 16.0456 39.0306 16.0369C38.7303 16.0264 38.5586 15.6948 38.3767 15.3439C38.1678 14.941 37.9294 14.484 37.4287 14.5011C36.9445 14.5172 36.7113 14.9351 36.5056 15.3038C36.2867 15.6965 36.1377 15.9353 35.8504 15.9243C35.5441 15.9134 35.3813 15.6439 35.1929 15.3319C34.9829 14.9845 34.7402 14.594 34.2493 14.6073C33.7733 14.6233 33.5394 14.9779 33.3331 15.2909C33.1148 15.6218 32.9619 15.8235 32.671 15.8115C32.3573 15.8005 32.1953 15.5769 32.0079 15.3179C31.7974 15.0269 31.5602 14.6976 31.0707 14.7136C30.6052 14.7291 30.3714 15.0195 30.1652 15.2757C29.9693 15.5187 29.8164 15.711 29.4929 15.6989C29.4051 15.6954 29.3315 15.7627 29.3284 15.8486C29.325 15.9342 29.3937 16.0063 29.4815 16.0096C29.9611 16.0253 30.204 15.7298 30.415 15.4678C30.6021 15.2354 30.7636 15.0349 31.0815 15.0243C31.3877 15.0116 31.5313 15.1975 31.7484 15.4974C31.9546 15.7823 32.1886 16.1054 32.6595 16.1221C33.1528 16.1382 33.3902 15.7779 33.6003 15.4591C33.7882 15.1742 33.9504 14.9283 34.2601 14.9179C34.5451 14.9075 34.7003 15.1276 34.919 15.4898C35.1252 15.8311 35.3587 16.2178 35.839 16.2349C36.3358 16.2516 36.5757 15.8277 36.7847 15.4526C36.9658 15.1282 37.1367 14.8217 37.4396 14.8116C37.7246 14.8051 37.8732 15.0594 38.0931 15.4843C38.2985 15.8809 38.5314 16.3302 39.0191 16.3475C39.0282 16.3478 39.0371 16.348 39.046 16.348C39.5331 16.348 39.7642 15.8702 39.9688 15.4478C40.1499 15.0734 40.3213 14.7206 40.6154 14.7063V14.3956Z" fill="black"/>
<path d="M24.7179 33.2543H31.0769V27.0399H24.7179V33.2543Z" fill="#3ECC5F"/>
<path d="M34.2565 29.3703C34.2217 29.3703 34.1885 29.3761 34.1549 29.3803C34.1489 29.3569 34.1432 29.3335 34.1365 29.3102C34.4236 29.193 34.6253 28.9165 34.6253 28.5935C34.6253 28.1644 34.2695 27.8167 33.8305 27.8167C33.6495 27.8167 33.4847 27.8783 33.351 27.9777C33.3333 27.9601 33.3157 27.9427 33.2977 27.9255C33.3974 27.7956 33.4585 27.6362 33.4585 27.4614C33.4585 27.0323 33.1027 26.6846 32.6636 26.6846C32.3353 26.6846 32.0536 26.8793 31.9325 27.1571C31.9089 27.1506 31.8853 27.1451 31.8617 27.1392C31.866 27.1064 31.8719 27.074 31.8719 27.0399C31.8719 26.6108 31.5161 26.2632 31.077 26.2632C30.6379 26.2632 30.2822 26.6108 30.2822 27.0399C30.2822 27.074 30.288 27.1064 30.2923 27.1392C30.2688 27.1451 30.2451 27.1506 30.2216 27.1571C30.1004 26.8793 29.8187 26.6846 29.4905 26.6846C29.0514 26.6846 28.6956 27.0323 28.6956 27.4614C28.6956 27.6362 28.7566 27.7956 28.8563 27.9255C28.2654 28.4897 27.8975 29.276 27.8975 30.1471C27.8975 31.8632 29.321 33.2543 31.077 33.2543C32.5617 33.2543 33.805 32.2584 34.1549 30.9139C34.1885 30.9181 34.2217 30.9239 34.2565 30.9239C34.6956 30.9239 35.0514 30.5762 35.0514 30.1471C35.0514 29.718 34.6956 29.3703 34.2565 29.3703Z" fill="#44D860"/>
<path d="M24.7179 23.9328H31.0769V20.8256H24.7179V23.9328Z" fill="#3ECC5F"/>
<path d="M32.6667 22.7676C32.8862 22.7676 33.0641 22.5937 33.0641 22.3792C33.0641 22.1646 32.8862 21.9908 32.6667 21.9908C32.6493 21.9908 32.6326 21.9938 32.616 21.9958C32.6128 21.9841 32.6101 21.9725 32.6067 21.9608C32.7501 21.9022 32.8511 21.7638 32.8511 21.6024C32.8511 21.3879 32.6732 21.214 32.4536 21.214C32.3632 21.214 32.2807 21.2446 32.2139 21.2945C32.2052 21.2856 32.1963 21.2769 32.1872 21.2684C32.2371 21.2036 32.2676 21.1237 32.2676 21.0363C32.2676 20.8219 32.0898 20.6479 31.8702 20.6479C31.706 20.6479 31.5651 20.7453 31.5046 20.8842C31.3683 20.8471 31.2254 20.8256 31.0769 20.8256C30.1991 20.8256 29.4872 21.5213 29.4872 22.3792C29.4872 23.2371 30.1991 23.9328 31.0769 23.9328C31.2254 23.9328 31.3683 23.9113 31.5046 23.8742C31.5651 24.0131 31.706 24.1105 31.8702 24.1105C32.0898 24.1105 32.2676 23.9365 32.2676 23.7221C32.2676 23.6346 32.2371 23.5548 32.1872 23.49C32.1963 23.4815 32.2052 23.4728 32.2139 23.4639C32.2807 23.5138 32.3632 23.5444 32.4536 23.5444C32.6732 23.5444 32.8511 23.3705 32.8511 23.156C32.8511 22.9946 32.7501 22.8561 32.6067 22.7976C32.6101 22.7861 32.6128 22.7743 32.616 22.7626C32.6326 22.7646 32.6493 22.7676 32.6667 22.7676Z" fill="#44D860"/>
<path d="M34.2564 11.31C34.231 11.31 34.2039 11.3068 34.1785 11.3022C34.1531 11.2975 34.1275 11.2898 34.1038 11.2804C34.0799 11.2711 34.0577 11.2587 34.0353 11.2447C34.0146 11.2307 33.9941 11.2136 33.9749 11.1965C33.9575 11.1779 33.94 11.1593 33.9257 11.1375C33.9114 11.1158 33.8987 11.094 33.889 11.0707C33.8796 11.0474 33.8717 11.0225 33.8669 10.9977C33.8622 10.9728 33.859 10.9464 33.859 10.9216C33.859 10.8967 33.8622 10.8703 33.8669 10.8454C33.8717 10.8206 33.8796 10.7973 33.889 10.7724C33.8987 10.7491 33.9114 10.7274 33.9257 10.7056C33.94 10.6854 33.9575 10.6652 33.9749 10.6466C33.9941 10.6295 34.0146 10.6124 34.0353 10.5984C34.0577 10.5844 34.0799 10.572 34.1038 10.5627C34.1275 10.5534 34.1531 10.5456 34.1785 10.5409C34.2294 10.5301 34.2818 10.5301 34.3343 10.5409C34.3596 10.5456 34.3852 10.5534 34.409 10.5627C34.4327 10.572 34.4551 10.5844 34.4774 10.5984C34.498 10.6124 34.5186 10.6295 34.5378 10.6466C34.5553 10.6652 34.5728 10.6854 34.5871 10.7056C34.6014 10.7274 34.6141 10.7491 34.6236 10.7724C34.6332 10.7973 34.6411 10.8206 34.6459 10.8454C34.6505 10.8703 34.6538 10.8967 34.6538 10.9216C34.6538 11.0241 34.6108 11.1251 34.5378 11.1965C34.5186 11.2136 34.498 11.2307 34.4774 11.2447C34.4551 11.2587 34.4327 11.2711 34.409 11.2804C34.3852 11.2898 34.3596 11.2975 34.3343 11.3022C34.3089 11.3068 34.2818 11.31 34.2564 11.31Z" fill="black"/>
<path d="M37.4359 11.1158C37.331 11.1158 37.2292 11.0738 37.1544 11.0024C37.137 10.9837 37.1195 10.9635 37.1052 10.9433C37.0909 10.9216 37.0782 10.8998 37.0685 10.8765C37.0591 10.8532 37.0511 10.8284 37.0463 10.8035C37.0415 10.7786 37.0385 10.7522 37.0385 10.7274C37.0385 10.6248 37.0814 10.5254 37.1544 10.4524C37.1736 10.4353 37.1941 10.4182 37.2148 10.4042C37.2372 10.3902 37.2593 10.3778 37.2832 10.3685C37.3069 10.3592 37.3326 10.3514 37.358 10.3467C37.4089 10.3359 37.4629 10.3359 37.5138 10.3467C37.5391 10.3514 37.5647 10.3592 37.5885 10.3685C37.6122 10.3778 37.6345 10.3902 37.6568 10.4042C37.6774 10.4182 37.698 10.4353 37.7173 10.4524C37.7902 10.5254 37.8333 10.6248 37.8333 10.7274C37.8333 10.7522 37.83 10.7786 37.8254 10.8035C37.8206 10.8284 37.8127 10.8532 37.8031 10.8765C37.792 10.8998 37.7809 10.9216 37.7666 10.9433C37.7523 10.9635 37.7348 10.9837 37.7173 11.0024C37.698 11.0194 37.6774 11.0365 37.6568 11.0505C37.6345 11.0645 37.6122 11.0769 37.5885 11.0863C37.5647 11.0956 37.5391 11.1033 37.5138 11.108C37.4884 11.1127 37.4613 11.1158 37.4359 11.1158Z" fill="black"/>
</g>
<path d="M62.1763 17.6992C62.1398 17.3581 61.9862 17.0924 61.7153 16.9023C61.4471 16.7122 61.098 16.6172 60.6684 16.6172C60.3663 16.6172 60.1073 16.6628 59.8911 16.7539C59.675 16.8451 59.5096 16.9687 59.395 17.125C59.2804 17.2812 59.2218 17.4596 59.2192 17.6602C59.2192 17.8268 59.257 17.9714 59.3325 18.0937C59.4106 18.2161 59.516 18.3203 59.6488 18.4062C59.7816 18.4896 59.9289 18.5599 60.0903 18.6172C60.2518 18.6745 60.4146 18.7227 60.5786 18.7617L61.3286 18.9492C61.6307 19.0195 61.921 19.1146 62.1996 19.2344C62.4809 19.3542 62.7323 19.5052 62.9536 19.6875C63.1776 19.8698 63.3547 20.0898 63.4849 20.3477C63.6151 20.6055 63.6801 20.9076 63.6801 21.2539C63.6801 21.7227 63.5604 22.1354 63.3208 22.4922C63.0812 22.8464 62.7349 23.1237 62.2817 23.3242C61.8312 23.5221 61.2856 23.6211 60.645 23.6211C60.0226 23.6211 59.4822 23.5247 59.0238 23.332C58.5681 23.1393 58.2114 22.8581 57.9536 22.4883C57.6984 22.1185 57.5604 21.668 57.5396 21.1367H58.9653C58.9862 21.4154 59.072 21.6471 59.223 21.832C59.3741 22.0169 59.5708 22.1549 59.813 22.2461C60.0578 22.3372 60.3312 22.3828 60.6333 22.3828C60.9484 22.3828 61.2243 22.3359 61.4613 22.2422C61.7009 22.1458 61.8884 22.013 62.0238 21.8437C62.1592 21.6719 62.2283 21.4714 62.2309 21.2422C62.2283 21.0339 62.1672 20.862 62.0474 20.7266C61.9276 20.5885 61.7595 20.474 61.5434 20.3828C61.3298 20.2891 61.0798 20.2057 60.7934 20.1328L59.8833 19.8984C59.2244 19.7292 58.7036 19.4727 58.3208 19.1289C57.9406 18.7826 57.7505 18.3229 57.7505 17.75C57.7505 17.2786 57.8781 16.8659 58.1333 16.5117C58.3911 16.1576 58.7414 15.8828 59.1841 15.6875C59.6268 15.4896 60.1281 15.3906 60.688 15.3906C61.2557 15.3906 61.753 15.4896 62.1801 15.6875C62.6098 15.8828 62.947 16.1549 63.1918 16.5039C63.4366 16.8503 63.563 17.2487 63.5708 17.6992H62.1763ZM67.5269 23.6172C66.9409 23.6172 66.4331 23.4883 66.0034 23.2305C65.5737 22.9727 65.2404 22.612 65.0034 22.1484C64.769 21.6849 64.6519 21.1432 64.6519 20.5234C64.6519 19.9036 64.769 19.3607 65.0034 18.8945C65.2404 18.4284 65.5737 18.0664 66.0034 17.8086C66.4331 17.5508 66.9409 17.4219 67.5269 17.4219C68.1128 17.4219 68.6206 17.5508 69.0503 17.8086C69.48 18.0664 69.812 18.4284 70.0464 18.8945C70.2834 19.3607 70.4019 19.9036 70.4019 20.5234C70.4019 21.1432 70.2834 21.6849 70.0464 22.1484C69.812 22.612 69.48 22.9727 69.0503 23.2305C68.6206 23.4883 68.1128 23.6172 67.5269 23.6172ZM67.5346 22.4844C67.8523 22.4844 68.1179 22.3971 68.3314 22.2227C68.545 22.0456 68.7038 21.8086 68.808 21.5117C68.9148 21.2148 68.9683 20.8841 68.9683 20.5195C68.9683 20.1523 68.9148 19.8203 68.808 19.5234C68.7038 19.224 68.545 18.9857 68.3314 18.8086C68.1179 18.6315 67.8523 18.543 67.5346 18.543C67.209 18.543 66.9382 18.6315 66.7221 18.8086C66.5085 18.9857 66.3484 19.224 66.2416 19.5234C66.1374 19.8203 66.0854 20.1523 66.0854 20.5195C66.0854 20.8841 66.1374 21.2148 66.2416 21.5117C66.3484 21.8086 66.5085 22.0456 66.7221 22.2227C66.9382 22.3971 67.209 22.4844 67.5346 22.4844ZM74.641 17.5V18.5937H71.0942V17.5H74.641ZM71.981 23.5V16.9336C71.981 16.5299 72.0643 16.194 72.231 15.9258C72.4002 15.6576 72.6267 15.457 72.9105 15.3242C73.1944 15.1914 73.5096 15.125 73.856 15.125C74.1007 15.125 74.3182 15.1445 74.5083 15.1836C74.6984 15.2227 74.8389 15.2578 74.9301 15.2891L74.6489 16.3828C74.589 16.3646 74.5135 16.3464 74.4224 16.3281C74.3312 16.3073 74.2296 16.2969 74.1176 16.2969C73.8546 16.2969 73.6684 16.3607 73.559 16.4883C73.4522 16.6133 73.3989 16.793 73.3989 17.0273V23.5H71.981ZM78.7445 17.5V18.5937H75.2954V17.5H78.7445ZM76.147 16.0625H77.5609V21.6953C77.5609 21.8854 77.5897 22.0313 77.647 22.1328C77.7069 22.2318 77.785 22.2995 77.8813 22.3359C77.9777 22.3724 78.0844 22.3906 78.2016 22.3906C78.2901 22.3906 78.3709 22.3841 78.4438 22.3711C78.5194 22.3581 78.5767 22.3464 78.6157 22.3359L78.8539 23.4414C78.7784 23.4674 78.6704 23.4961 78.5298 23.5273C78.3918 23.5586 78.2225 23.5768 78.022 23.582C77.6678 23.5924 77.3488 23.5391 77.0649 23.4219C76.7811 23.3021 76.5557 23.1172 76.3891 22.8672C76.225 22.6172 76.1444 22.3047 76.147 21.9297V16.0625ZM81.1654 23.5L79.4701 17.5H80.9115L81.9663 21.7187H82.021L83.099 17.5H84.5249L85.6029 21.6953H85.6615L86.7006 17.5H88.146L86.4468 23.5H84.974L83.849 19.4453H83.767L82.642 23.5H81.1654ZM90.8599 23.6211C90.4797 23.6211 90.1371 23.5534 89.8324 23.418C89.5303 23.2799 89.2909 23.0768 89.1138 22.8086C88.9393 22.5404 88.852 22.2096 88.852 21.8164C88.852 21.4779 88.9145 21.1979 89.0395 20.9766C89.1645 20.7552 89.3351 20.5781 89.5513 20.4453C89.7674 20.3125 90.0109 20.2122 90.2817 20.1445C90.5552 20.0742 90.8377 20.0234 91.1294 19.9922C91.481 19.9557 91.7661 19.9232 91.9849 19.8945C92.2036 19.8633 92.3625 19.8164 92.4614 19.7539C92.563 19.6888 92.6138 19.5885 92.6138 19.4531V19.4297C92.6138 19.1354 92.5264 18.9076 92.352 18.7461C92.1775 18.5846 91.9262 18.5039 91.598 18.5039C91.2517 18.5039 90.9771 18.5794 90.7739 18.7305C90.5734 18.8815 90.4379 19.0599 90.3676 19.2656L89.0474 19.0781C89.1515 18.7135 89.3234 18.4089 89.563 18.1641C89.8026 17.9167 90.0955 17.7318 90.4419 17.6094C90.7882 17.4844 91.1711 17.4219 91.5903 17.4219C91.8794 17.4219 92.1671 17.4557 92.4535 17.5234C92.74 17.5911 93.0018 17.7031 93.2388 17.8594C93.4757 18.013 93.6658 18.2227 93.809 18.4883C93.9548 18.7539 94.0278 19.0859 94.0278 19.4844V23.5H92.6685V22.6758H92.6215C92.5355 22.8424 92.4146 22.9987 92.2583 23.1445C92.1047 23.2878 91.9106 23.4036 91.6763 23.4922C91.4445 23.5781 91.1724 23.6211 90.8599 23.6211ZM91.227 22.582C91.5108 22.582 91.757 22.526 91.9653 22.4141C92.1737 22.2995 92.3338 22.1484 92.4458 21.9609C92.5604 21.7734 92.6176 21.569 92.6176 21.3477V20.6406C92.5733 20.6771 92.4978 20.7109 92.391 20.7422C92.2868 20.7734 92.1697 20.8008 92.0395 20.8242C91.9092 20.8477 91.7804 20.8685 91.6528 20.8867C91.5252 20.9049 91.4146 20.9206 91.3208 20.9336C91.1099 20.9622 90.9211 21.0091 90.7544 21.0742C90.5877 21.1393 90.4562 21.2305 90.3599 21.3477C90.2635 21.4622 90.2153 21.6107 90.2153 21.793C90.2153 22.0534 90.3104 22.25 90.5005 22.3828C90.6906 22.5156 90.9327 22.582 91.227 22.582ZM95.4496 23.5V17.5H96.8208V18.5H96.8833C96.9927 18.1536 97.1802 17.8867 97.4458 17.6992C97.714 17.5091 98.02 17.4141 98.3638 17.4141C98.4419 17.4141 98.5291 17.418 98.6255 17.4258C98.7244 17.431 98.8064 17.4401 98.8715 17.4531V18.7539C98.8116 18.7331 98.7166 18.7148 98.5864 18.6992C98.4588 18.681 98.3351 18.6719 98.2153 18.6719C97.9575 18.6719 97.7256 18.7279 97.5199 18.8398C97.3168 18.9492 97.1566 19.1016 97.0395 19.2969C96.9223 19.4922 96.8638 19.7174 96.8638 19.9727V23.5H95.4496ZM102.22 23.6172C101.619 23.6172 101.099 23.4922 100.662 23.2422C100.227 22.9896 99.892 22.6328 99.6576 22.1719C99.4232 21.7083 99.3061 21.1628 99.3061 20.5352C99.3061 19.918 99.4232 19.3763 99.6576 18.9102C99.8946 18.4414 100.225 18.0768 100.65 17.8164C101.074 17.5534 101.573 17.4219 102.146 17.4219C102.516 17.4219 102.865 17.4818 103.193 17.6016C103.524 17.7187 103.815 17.901 104.068 18.1484C104.323 18.3958 104.524 18.7109 104.669 19.0937C104.815 19.474 104.888 19.9271 104.888 20.4531V20.8867H99.9701V19.9336H103.533C103.53 19.6628 103.472 19.4219 103.357 19.2109C103.242 18.9974 103.082 18.8294 102.876 18.707C102.673 18.5846 102.436 18.5234 102.166 18.5234C101.876 18.5234 101.623 18.5937 101.404 18.7344C101.185 18.8724 101.014 19.0547 100.892 19.2812C100.772 19.5052 100.711 19.7513 100.708 20.0195V20.8516C100.708 21.2005 100.772 21.5 100.9 21.75C101.028 21.9974 101.206 22.1875 101.435 22.3203C101.664 22.4505 101.932 22.5156 102.24 22.5156C102.445 22.5156 102.632 22.487 102.798 22.4297C102.965 22.3698 103.11 22.2826 103.232 22.168C103.354 22.0534 103.447 21.9115 103.509 21.7422L104.83 21.8906C104.746 22.2396 104.587 22.5443 104.353 22.8047C104.121 23.0625 103.824 23.263 103.462 23.4062C103.1 23.5469 102.686 23.6172 102.22 23.6172ZM109.35 15.125L106.772 24.7031H105.534L108.112 15.125H109.35ZM113.026 23.5H110.315V15.5H113.081C113.875 15.5 114.557 15.6602 115.127 15.9805C115.7 16.2982 116.14 16.7552 116.448 17.3516C116.755 17.9479 116.909 18.6615 116.909 19.4922C116.909 20.3255 116.754 21.0417 116.444 21.6406C116.137 22.2396 115.693 22.6992 115.112 23.0195C114.534 23.3398 113.838 23.5 113.026 23.5ZM111.764 22.2461H112.956C113.513 22.2461 113.978 22.1445 114.35 21.9414C114.722 21.7357 115.002 21.4297 115.19 21.0234C115.377 20.6146 115.471 20.1042 115.471 19.4922C115.471 18.8802 115.377 18.3724 115.19 17.9687C115.002 17.5625 114.725 17.2591 114.358 17.0586C113.993 16.8555 113.54 16.7539 112.999 16.7539H111.764V22.2461ZM120.879 23.6172C120.278 23.6172 119.758 23.4922 119.321 23.2422C118.886 22.9896 118.551 22.6328 118.317 22.1719C118.083 21.7083 117.965 21.1628 117.965 20.5352C117.965 19.918 118.083 19.3763 118.317 18.9102C118.554 18.4414 118.885 18.0768 119.309 17.8164C119.734 17.5534 120.232 17.4219 120.805 17.4219C121.175 17.4219 121.524 17.4818 121.852 17.6016C122.183 17.7187 122.474 17.901 122.727 18.1484C122.982 18.3958 123.183 18.7109 123.329 19.0937C123.474 19.474 123.547 19.9271 123.547 20.4531V20.8867H118.629V19.9336H122.192C122.189 19.6628 122.131 19.4219 122.016 19.2109C121.902 18.9974 121.741 18.8294 121.536 18.707C121.333 18.5846 121.096 18.5234 120.825 18.5234C120.536 18.5234 120.282 18.5937 120.063 18.7344C119.844 18.8724 119.674 19.0547 119.551 19.2812C119.431 19.5052 119.37 19.7513 119.368 20.0195V20.8516C119.368 21.2005 119.431 21.5 119.559 21.75C119.687 21.9974 119.865 22.1875 120.094 22.3203C120.323 22.4505 120.592 22.5156 120.899 22.5156C121.105 22.5156 121.291 22.487 121.458 22.4297C121.624 22.3698 121.769 22.2826 121.891 22.168C122.014 22.0534 122.106 21.9115 122.168 21.7422L123.489 21.8906C123.405 22.2396 123.247 22.5443 123.012 22.8047C122.78 23.0625 122.484 23.263 122.122 23.4062C121.76 23.5469 121.346 23.6172 120.879 23.6172ZM129.931 17.5L127.794 23.5H126.232L124.095 17.5H125.603L126.982 21.957H127.044L128.427 17.5H129.931ZM136.412 23.5H133.701V15.5H136.466C137.261 15.5 137.943 15.6602 138.513 15.9805C139.086 16.2982 139.526 16.7552 139.833 17.3516C140.141 17.9479 140.294 18.6615 140.294 19.4922C140.294 20.3255 140.139 21.0417 139.83 21.6406C139.522 22.2396 139.078 22.6992 138.498 23.0195C137.919 23.3398 137.224 23.5 136.412 23.5ZM135.15 22.2461H136.341C136.899 22.2461 137.363 22.1445 137.736 21.9414C138.108 21.7357 138.388 21.4297 138.576 21.0234C138.763 20.6146 138.857 20.1042 138.857 19.4922C138.857 18.8802 138.763 18.3724 138.576 17.9687C138.388 17.5625 138.111 17.2591 137.744 17.0586C137.379 16.8555 136.926 16.7539 136.384 16.7539H135.15V22.2461ZM144.226 23.6172C143.64 23.6172 143.132 23.4883 142.703 23.2305C142.273 22.9727 141.94 22.612 141.703 22.1484C141.468 21.6849 141.351 21.1432 141.351 20.5234C141.351 19.9036 141.468 19.3607 141.703 18.8945C141.94 18.4284 142.273 18.0664 142.703 17.8086C143.132 17.5508 143.64 17.4219 144.226 17.4219C144.812 17.4219 145.32 17.5508 145.75 17.8086C146.179 18.0664 146.511 18.4284 146.746 18.8945C146.983 19.3607 147.101 19.9036 147.101 20.5234C147.101 21.1432 146.983 21.6849 146.746 22.1484C146.511 22.612 146.179 22.9727 145.75 23.2305C145.32 23.4883 144.812 23.6172 144.226 23.6172ZM144.234 22.4844C144.552 22.4844 144.817 22.3971 145.031 22.2227C145.244 22.0456 145.403 21.8086 145.507 21.5117C145.614 21.2148 145.667 20.8841 145.667 20.5195C145.667 20.1523 145.614 19.8203 145.507 19.5234C145.403 19.224 145.244 18.9857 145.031 18.8086C144.817 18.6315 144.552 18.543 144.234 18.543C143.908 18.543 143.638 18.6315 143.421 18.8086C143.208 18.9857 143.048 19.224 142.941 19.5234C142.837 19.8203 142.785 20.1523 142.785 20.5195C142.785 20.8841 142.837 21.2148 142.941 21.5117C143.048 21.8086 143.208 22.0456 143.421 22.2227C143.638 22.3971 143.908 22.4844 144.234 22.4844ZM150.918 23.6172C150.319 23.6172 149.805 23.4857 149.375 23.2227C148.948 22.9596 148.619 22.5964 148.387 22.1328C148.158 21.6667 148.043 21.1302 148.043 20.5234C148.043 19.9141 148.161 19.3763 148.395 18.9102C148.629 18.4414 148.96 18.0768 149.387 17.8164C149.817 17.5534 150.325 17.4219 150.911 17.4219C151.398 17.4219 151.829 17.5117 152.204 17.6914C152.581 17.8685 152.882 18.1198 153.106 18.4453C153.33 18.7682 153.458 19.1458 153.489 19.5781H152.137C152.083 19.2891 151.952 19.0482 151.747 18.8555C151.543 18.6602 151.271 18.5625 150.93 18.5625C150.641 18.5625 150.387 18.6406 150.168 18.7969C149.95 18.9505 149.779 19.1719 149.657 19.4609C149.537 19.75 149.477 20.0964 149.477 20.5C149.477 20.9089 149.537 21.2604 149.657 21.5547C149.777 21.8464 149.944 22.0716 150.161 22.2305C150.379 22.3867 150.636 22.4648 150.93 22.4648C151.139 22.4648 151.325 22.4258 151.489 22.3477C151.655 22.2669 151.795 22.151 151.907 22C152.019 21.849 152.096 21.6654 152.137 21.4492H153.489C153.455 21.8737 153.33 22.25 153.114 22.5781C152.898 22.9036 152.603 23.1589 152.231 23.3437C151.859 23.526 151.421 23.6172 150.918 23.6172ZM159.392 19.0859L158.103 19.2266C158.067 19.0964 158.003 18.974 157.912 18.8594C157.823 18.7448 157.703 18.6523 157.552 18.582C157.401 18.5117 157.216 18.4766 156.998 18.4766C156.703 18.4766 156.456 18.5404 156.255 18.668C156.057 18.7956 155.96 18.9609 155.962 19.1641C155.96 19.3385 156.024 19.4805 156.154 19.5898C156.287 19.6992 156.505 19.7891 156.81 19.8594L157.833 20.0781C158.401 20.2005 158.823 20.3945 159.099 20.6602C159.378 20.9258 159.518 21.2734 159.521 21.7031C159.518 22.0807 159.408 22.4141 159.189 22.7031C158.973 22.9896 158.672 23.2135 158.287 23.375C157.901 23.5365 157.458 23.6172 156.958 23.6172C156.224 23.6172 155.633 23.4635 155.185 23.1562C154.737 22.8464 154.47 22.4154 154.384 21.8633L155.763 21.7305C155.826 22.0013 155.958 22.2057 156.162 22.3437C156.365 22.4818 156.629 22.5508 156.955 22.5508C157.291 22.5508 157.56 22.4818 157.763 22.3437C157.969 22.2057 158.072 22.0352 158.072 21.832C158.072 21.6602 158.005 21.5182 157.873 21.4062C157.742 21.2943 157.539 21.2083 157.263 21.1484L156.24 20.9336C155.664 20.8138 155.238 20.612 154.962 20.3281C154.686 20.0417 154.55 19.6797 154.552 19.2422C154.55 18.8724 154.65 18.5521 154.853 18.2812C155.059 18.0078 155.344 17.7969 155.708 17.6484C156.076 17.4974 156.499 17.4219 156.978 17.4219C157.681 17.4219 158.235 17.5716 158.638 17.8711C159.044 18.1706 159.296 18.5755 159.392 19.0859Z" fill="#1F3850"/>
</g>
<defs>
<clipPath id="clip0_148_780">
<rect width="167" height="38" fill="white"/>
</clipPath>
</defs>
</svg>
